<?xml version="1.0" standalone="no"?>
<!DOCTYPE svg PUBLIC "-//W3C//DTD SVG 20010904//EN"
 "http://www.w3.org/TR/2001/REC-SVG-20010904/DTD/svg10.dtd">
<svg version="1.0" xmlns="http://www.w3.org/2000/svg"
 width="773.000000pt" height="516.000000pt" viewBox="0 0 773.000000 516.000000"
 preserveAspectRatio="xMidYMid meet">

<g transform="translate(0.000000,516.000000) scale(0.100000,-0.100000)"
fill="#000000" stroke="none">
<path d="M0 4751 l0 -409 48 -6 c26 -3 146 -13 267 -21 286 -20 311 -23 292
-38 -14 -11 -10 -37 35 -217 28 -113 53 -212 55 -220 4 -12 6 -12 15 3 7 13 6
27 -2 47 -19 46 -29 100 -19 106 5 3 9 10 9 15 0 6 -4 8 -9 4 -11 -6 -44 97
-60 189 -13 73 -14 67 2 65 6 -1 19 1 28 5 9 4 94 2 190 -4 96 -6 269 -15 384
-20 116 -5 220 -12 233 -15 20 -5 4 -21 -120 -126 -79 -67 -239 -203 -357
-302 -118 -100 -234 -196 -259 -214 -81 -58 -186 -80 -537 -113 -60 -6 -129
-13 -152 -16 l-43 -6 0 -154 c0 -144 1 -154 18 -145 18 9 222 34 229 28 2 -2
-53 -52 -122 -111 l-125 -107 0 -180 c0 -172 1 -179 20 -179 11 0 20 5 20 12
0 6 14 -4 30 -22 17 -18 30 -43 30 -54 0 -16 -2 -18 -9 -7 -6 9 -20 11 -50 6
-35 -6 -41 -10 -41 -31 0 -20 5 -24 28 -24 16 0 37 7 48 15 27 21 52 18 59 -6
8 -25 -16 -46 -65 -55 -19 -3 -43 -8 -52 -11 -17 -4 -18 -71 -18 -1219 l0
-1214 3865 0 3865 0 0 144 c0 106 -3 146 -12 149 -10 4 -10 6 0 6 9 1 12 51
12 214 0 204 -3 232 -25 232 -28 1 -75 18 -86 31 -18 22 -3 29 25 10 14 -9 32
-16 41 -16 8 0 15 -4 15 -10 0 -5 7 -7 15 -4 8 4 15 13 15 21 0 8 -4 12 -9 9
-4 -3 -17 4 -27 16 -19 21 -19 21 3 9 12 -6 24 -11 27 -11 3 0 6 981 6 2180
l0 2180 -805 0 -805 0 -27 -51 c-45 -83 -51 -91 -54 -80 -6 18 -321 -121 -329
-145 -4 -10 -10 -54 -13 -97 l-7 -78 60 43 c149 106 255 176 258 168 2 -5 -5
-24 -14 -42 -10 -18 -19 -57 -20 -87 -2 -47 -6 -57 -32 -77 -16 -13 -37 -42
-46 -64 -10 -26 -29 -48 -50 -61 -28 -16 -35 -27 -38 -62 -3 -23 0 -45 4 -48
5 -3 6 -17 3 -32 -7 -25 -6 -25 57 -29 34 -2 130 -5 211 -7 81 -1 158 -6 170
-11 12 -5 16 -9 10 -9 -7 -1 -21 -9 -31 -18 -9 -10 -29 -26 -42 -36 l-25 -18
25 7 c14 4 31 9 38 11 6 3 12 -1 12 -9 0 -13 -90 -58 -116 -58 -6 0 -25 -13
-44 -30 -18 -16 -36 -27 -41 -25 -4 3 -36 -8 -71 -25 -42 -20 -80 -30 -113
-31 -27 -1 -61 -5 -75 -9 -23 -7 -22 -8 10 -9 26 -1 31 -4 20 -11 -8 -5 -25
-7 -37 -3 -16 3 -23 1 -23 -10 0 -15 -57 -33 -92 -29 -10 1 -18 -3 -18 -8 0
-6 -11 -10 -24 -10 -12 0 -37 -5 -55 -11 -24 -8 -39 -8 -61 1 -16 7 -28 16
-25 20 10 16 99 40 187 51 49 7 87 13 85 16 -2 2 -91 -4 -196 -12 -105 -9
-197 -15 -204 -12 -7 2 19 14 56 26 75 25 232 50 315 51 32 0 52 4 52 11 0 9
-23 10 -82 6 -337 -25 -487 -38 -511 -42 -59 -10 -12 14 95 50 82 27 128 37
167 36 38 -2 59 3 72 15 14 12 19 13 19 4 0 -10 24 -12 117 -6 100 5 123 10
160 32 24 13 43 29 43 33 0 4 -21 4 -47 0 -59 -11 -944 -81 -950 -76 -2 2 18
12 44 22 27 10 55 24 64 31 8 8 24 14 33 14 10 0 41 7 69 15 29 8 104 18 167
22 l115 8 5 34 c7 48 30 53 30 7 0 -35 1 -36 38 -36 20 1 92 7 159 14 101 11
129 17 161 39 33 21 40 32 45 69 3 23 5 43 4 44 -1 1 -27 -4 -57 -11 -30 -8
-122 -19 -205 -24 -82 -6 -256 -20 -385 -31 -658 -57 -813 -70 -817 -67 -3 4
241 117 253 117 12 0 189 73 282 116 52 24 96 44 98 44 3 0 37 15 77 33 95 44
361 158 462 197 44 18 87 37 95 45 8 7 107 54 220 104 l205 91 -81 0 c-81 0
-83 -1 -140 -43 -80 -58 -180 -119 -229 -139 -88 -37 -127 -42 -670 -83 -190
-14 -655 -53 -905 -75 -125 -11 -522 -51 -745 -75 -185 -20 -184 -20 -154 4
28 21 173 112 239 149 25 14 77 46 116 72 40 26 76 49 81 51 18 8 213 131 213
135 0 2 -262 4 -583 4 l-584 0 -44 -40 c-55 -49 -78 -53 -26 -4 20 19 37 37
37 40 0 2 -571 4 -1270 4 l-1270 0 0 -409z m6030 265 c0 -2 -7 -7 -16 -10 -8
-3 -12 -2 -9 4 6 10 25 14 25 6z m-2800 -161 c0 -2 -10 -9 -22 -15 -22 -11
-22 -10 -4 4 21 17 26 19 26 11z m1920 -24 c-8 -5 -26 -12 -40 -15 l-25 -7 25
15 c14 9 32 15 40 15 13 0 13 -1 0 -8z m-300 -91 c-8 -5 -24 -9 -35 -9 l-20 0
20 9 c11 5 27 9 35 9 13 1 13 0 0 -9z m-1507 -41 l21 -12 -23 -8 c-39 -15 -96
9 -58 24 21 9 37 8 60 -4z m602 -49 c7 -11 -39 -25 -55 -15 -5 3 -8 11 -5 16
8 12 52 12 60 -1z m890 -220 c8 -14 -21 -24 -42 -15 -17 7 -16 8 2 15 27 12
33 12 40 0z m-736 -51 c-7 -4 -17 -5 -22 -2 -5 3 -3 9 4 14 7 4 17 5 22 2 5
-3 3 -9 -4 -14z m731 11 c0 -5 -11 -10 -25 -10 -14 0 -25 5 -25 10 0 6 11 10
25 10 14 0 25 -4 25 -10z m10 -24 c0 -16 -14 -36 -26 -36 -8 0 -14 2 -14 4 0
2 -3 11 -6 20 -5 12 0 16 20 16 14 0 26 -2 26 -4z m-1510 -156 c0 -5 -9 -10
-20 -10 -11 0 -20 5 -20 10 0 6 9 10 20 10 11 0 20 -4 20 -10z m-660 -61 c3
-4 24 -7 45 -6 99 4 193 -3 198 -16 3 -8 -3 -14 -14 -14 -11 -1 -67 -27 -124
-58 l-105 -56 0 -65 c0 -35 2 -64 6 -64 13 0 142 119 136 126 -4 4 -2 4 5 1 6
-4 53 25 103 64 l93 72 116 -7 c64 -4 120 -11 124 -15 5 -5 -52 -53 -125 -108
-207 -156 -321 -244 -341 -263 -17 -16 -16 -16 35 -7 72 13 112 28 98 37 -7 4
13 17 47 30 32 13 79 34 105 48 26 13 53 20 59 16 7 -4 9 -3 6 3 -8 13 10 28
43 36 14 3 52 21 85 39 33 18 80 40 105 49 25 9 52 20 61 23 11 5 18 1 22 -11
2 -10 8 -26 12 -35 7 -17 -41 -44 -195 -108 -64 -27 -84 -40 -87 -57 -2 -8 6
-9 30 -2 41 12 42 12 27 -6 -15 -18 -14 -18 100 -5 47 5 106 12 131 15 l47 5
12 -50 c7 -28 11 -52 9 -54 -13 -9 -165 -23 -167 -15 -5 12 -182 0 -200 -14
-7 -5 -28 -7 -48 -4 -19 3 -92 -1 -162 -9 -355 -40 -399 -42 -329 -11 46 20
48 29 5 16 -18 -5 -52 -9 -76 -9 -24 0 -41 -4 -38 -8 3 -5 -30 -9 -74 -9 l-78
0 -6 32 c-4 18 0 47 7 66 8 19 17 42 20 52 4 10 12 15 18 11 8 -4 7 -9 -2 -15
-8 -5 -10 -9 -5 -9 5 0 2 -7 -5 -17 -13 -15 -12 -15 11 -2 14 8 28 18 31 23 4
5 12 5 19 1 9 -6 6 -12 -11 -21 -46 -27 62 -4 113 24 79 42 90 59 82 131 l-7
61 -76 -41 c-42 -22 -80 -45 -86 -51 -5 -6 1 -5 14 2 14 7 21 8 17 1 -7 -11
-91 -51 -108 -51 -6 0 -7 36 -3 93 6 82 9 94 33 116 24 22 25 23 4 17 -20 -7
-22 -4 -22 33 0 75 -2 74 134 66 67 -4 123 -11 126 -16z m1250 -3 c0 -9 -30
-14 -35 -6 -4 6 3 10 14 10 12 0 21 -2 21 -4z m124 -94 c28 -8 25 -10 -80 -85
-148 -105 -154 -110 -153 -144 0 -15 3 -22 6 -15 2 6 12 12 21 12 13 0 14 -2
4 -9 -14 -9 73 -4 118 6 14 3 45 6 70 7 28 1 56 9 72 21 25 18 27 26 28 82 0
34 5 65 10 68 6 4 10 -17 10 -56 0 -60 1 -62 19 -45 10 10 21 14 24 9 9 -15
38 -135 34 -140 -14 -14 -324 -42 -342 -31 -8 5 -86 -3 -130 -12 -26 -6 -35 2
-35 30 0 22 7 33 29 44 16 9 31 12 35 9 3 -4 6 4 6 16 0 21 -1 21 -25 5 -14
-9 -27 -15 -29 -13 -2 2 -6 30 -9 61 -4 42 -2 60 9 69 8 6 14 18 14 25 0 8 26
34 58 59 l57 45 75 -5 c41 -3 88 -9 104 -13z m434 -35 l43 -13 -65 -46 c-35
-26 -66 -45 -68 -42 -10 9 10 97 23 105 18 11 16 11 67 -4z m-2758 -7 c0 -5
-9 -10 -20 -10 -11 0 -20 5 -20 10 0 6 9 10 20 10 11 0 20 -4 20 -10z m1495
-30 c3 -5 -1 -10 -10 -10 -9 0 -13 5 -10 10 3 6 8 10 10 10 2 0 7 -4 10 -10z
m1585 0 c0 -5 -9 -14 -20 -20 -15 -8 -20 -8 -20 3 0 8 3 17 7 20 10 10 33 8
33 -3z m-2831 -117 c24 -64 45 -122 47 -127 3 -7 -16 -11 -48 -11 -142 0 -277
-16 -349 -40 l-74 -26 65 6 c62 6 268 29 375 41 l50 6 22 -51 c25 -59 27 -56
-62 -66 -32 -3 -62 -9 -65 -14 -9 -13 -53 -21 -65 -11 -14 12 -270 -15 -302
-32 -12 -6 -29 -8 -38 -5 -8 4 -79 0 -156 -9 -78 -8 -143 -13 -146 -10 -3 3
52 43 123 89 71 46 161 104 199 129 39 26 135 91 215 147 80 55 150 100 156
101 6 0 30 -53 53 -117z m2904 45 c5 -31 2 -41 -16 -54 l-22 -16 22 5 c16 4
24 -1 29 -16 4 -12 2 -23 -5 -25 -6 -2 -9 -8 -5 -13 3 -5 -4 -9 -15 -9 -12 0
-21 -4 -21 -9 0 -5 -9 -11 -20 -14 -11 -3 -20 0 -20 6 0 9 -2 9 -8 1 -7 -11
-29 -11 -57 -1 -10 4 -10 16 -1 61 10 50 16 58 66 95 30 21 58 36 61 33 4 -4
9 -24 12 -44z m-325 6 l47 34 17 -23 c19 -25 15 -85 -6 -85 -6 0 -3 -5 7 -11
9 -5 17 -19 17 -29 0 -22 -18 -26 -167 -35 -97 -6 -101 -6 -108 15 -9 28 11
50 44 50 33 0 86 35 87 57 3 55 8 67 11 31 l4 -37 47 33z m505 4 c3 -22 0 -37
-10 -45 -8 -6 -12 -17 -7 -24 4 -8 3 -10 -5 -5 -6 4 -19 2 -27 -5 -18 -15 -20
-13 -29 29 -4 20 -3 32 4 32 6 0 11 6 11 13 0 12 32 34 51 36 4 1 9 -14 12
-31z m127 12 c0 -5 -5 -10 -11 -10 -5 0 -7 5 -4 10 3 6 8 10 11 10 2 0 4 -4 4
-10z m-2560 -10 c0 -5 -2 -10 -4 -10 -3 0 -8 5 -11 10 -3 6 -1 10 4 10 6 0 11
-4 11 -10z m-30 -9 c0 -5 -8 -11 -17 -15 -10 -3 -24 -9 -32 -12 -9 -4 -11 -2
-6 5 5 10 33 25 53 30 1 1 2 -3 2 -8z m1420 -6 c0 -8 -62 -37 -67 -31 -4 3 9
12 28 20 39 18 39 17 39 11z m-1528 -62 c-6 -2 -9 -10 -6 -15 4 -6 2 -8 -3 -5
-6 4 -14 0 -17 -9 -3 -8 -11 -12 -18 -8 -13 8 26 45 46 43 7 0 6 -2 -2 -6z
m2158 -98 c0 -8 -9 -15 -19 -15 -11 0 -26 -3 -35 -6 -9 -3 -16 -1 -16 5 0 12
34 29 58 30 6 1 12 -6 12 -14z m-140 -55 c0 -5 -5 -10 -11 -10 -5 0 -7 -5 -3
-11 4 -7 1 -10 -7 -7 -23 8 -23 38 0 38 12 0 21 -4 21 -10z m1599 -5 c-9 -8
-298 -12 -311 -4 -7 5 61 9 151 9 90 0 162 -2 160 -5z m-1732 -39 c-4 -9 -11
-16 -17 -16 -11 0 -14 33 -3 44 11 10 26 -11 20 -28z m-297 5 c0 -5 -19 -24
-42 -41 l-43 -32 45 7 c56 8 90 24 90 42 0 23 25 -7 33 -39 9 -33 2 -37 -77
-54 -120 -26 -137 -16 -112 66 12 43 15 45 57 51 24 3 45 7 47 7 1 1 2 -2 2
-7z m186 -37 c-4 -20 -10 -34 -13 -30 -3 3 -2 21 1 42 4 20 10 34 13 30 3 -3
2 -21 -1 -42z m-520 -20 c-30 -26 -52 -21 -40 9 4 11 17 17 38 17 l31 -1 -29
-25z m-396 -22 c0 -5 -14 -19 -31 -31 l-32 -24 34 -14 c23 -10 50 -12 87 -8
48 6 53 5 61 -17 11 -31 5 -33 -169 -48 -100 -9 -157 -19 -182 -32 -61 -30
-72 -25 -64 25 17 97 23 123 25 95 0 -16 4 -28 7 -28 14 0 64 42 59 50 -3 5
21 11 52 15 32 3 76 10 98 15 55 11 55 11 55 2z m520 -44 c0 -12 -13 -18 -52
-23 -29 -3 -65 -8 -80 -11 -25 -5 -28 -2 -28 20 0 22 5 25 48 31 26 3 58 9 72
13 27 9 40 -1 40 -30z m-1125 -21 c11 -12 1 -22 -58 -66 l-72 -52 65 6 c103
10 112 13 108 37 -2 12 3 23 10 25 7 3 12 -5 12 -22 0 -26 1 -27 44 -21 44 7
56 -1 56 -39 0 -16 -12 -19 -225 -40 -110 -12 -168 -22 -185 -33 -64 -43 -120
-54 -120 -24 0 9 -3 26 -5 37 -4 14 3 26 24 40 28 18 30 23 24 62 -4 29 -2 43
6 43 6 0 11 -16 11 -35 0 -19 2 -35 5 -35 3 0 30 20 60 44 44 36 64 46 109 51
30 4 63 13 73 21 23 17 41 17 58 1z m609 1 c-3 -4 -11 -5 -19 -1 -21 7 -19 12
4 10 11 0 18 -5 15 -9z m526 -17 c0 -14 -23 -27 -47 -29 -13 0 -23 5 -23 13 0
12 18 19 58 24 6 0 12 -3 12 -8z m-1022 -51 c-13 -21 -38 -27 -38 -10 0 8 26
24 48 29 1 1 -3 -8 -10 -19z m872 -6 c0 -8 -4 -12 -10 -9 -5 3 -10 13 -10 21
0 8 5 12 10 9 6 -3 10 -13 10 -21z m-130 -8 c0 -31 -10 -56 -21 -56 -10 0 -12
40 -3 64 9 24 24 19 24 -8z m-1227 -26 c3 -11 1 -20 -4 -20 -5 0 -9 9 -9 20 0
11 2 20 4 20 2 0 6 -9 9 -20z m-196 -22 c-3 -7 -5 -2 -5 12 0 14 2 19 5 13 2
-7 2 -19 0 -25z m1193 17 c-11 -13 -8 -15 19 -15 19 0 30 4 26 10 -8 13 1 13
26 0 10 -6 19 -19 19 -29 0 -17 -12 -20 -92 -26 -61 -5 -102 -14 -122 -26 -43
-26 -49 -24 -41 14 11 48 41 75 89 80 91 8 89 8 76 -8z m-1550 -29 c-52 -50
-302 -241 -335 -256 -28 -13 -113 -27 -275 -44 -313 -35 -292 -36 -288 17 l3
42 65 5 65 5 -2 40 c-2 22 -8 52 -14 67 -11 27 -5 53 11 43 4 -3 16 -36 25
-75 9 -38 21 -70 25 -70 5 0 70 7 147 15 118 13 143 19 175 42 26 17 38 33 38
49 0 28 2 27 -39 13 -17 -6 -31 -17 -31 -24 0 -8 -9 -17 -20 -20 -11 -3 -20
-10 -20 -14 0 -5 -13 -8 -30 -7 -16 1 -30 4 -30 7 0 3 28 20 63 37 73 36 104
58 96 66 -7 7 -166 -69 -186 -90 -8 -8 -16 -14 -18 -14 -12 0 -35 13 -35 20 0
16 161 101 208 109 26 5 48 9 48 8 1 -1 6 -22 11 -46 7 -39 10 -43 23 -30 8 8
39 33 68 56 43 34 63 43 110 48 31 4 62 8 67 10 6 2 28 4 50 4 34 1 37 -1 25
-13z m-243 -22 c-3 -3 -12 -4 -19 -1 -8 3 -5 6 6 6 11 1 17 -2 13 -5z m-27
-18 c0 -3 -13 -14 -29 -25 -24 -17 -30 -18 -34 -6 -4 9 -1 12 9 8 7 -3 14 0
14 5 0 6 8 13 18 15 9 3 18 5 20 6 1 0 2 -1 2 -3z m1394 -21 c20 -30 14 -45
-17 -45 -25 0 -67 -26 -67 -41 0 -5 9 -9 19 -9 16 0 38 -27 29 -35 -2 -1 -34
-6 -72 -10 l-69 -7 5 47 c4 33 12 51 28 62 12 8 19 21 16 29 -3 8 -1 14 4 14
6 0 10 -5 10 -11 0 -6 12 -1 28 10 37 28 66 26 86 -4z m175 -25 c7 -22 9 -45
6 -50 -7 -12 -75 -31 -87 -24 -13 8 -10 102 5 107 6 3 24 6 38 6 22 1 28 -5
38 -39z m196 28 c-11 -6 -23 -16 -27 -22 -5 -6 -8 -1 -8 12 0 17 6 22 28 22
25 -1 26 -1 7 -12z m-1256 -45 c7 -14 8 -29 4 -33 -4 -5 -78 -15 -163 -24 -85
-9 -173 -19 -195 -22 -51 -8 -40 3 50 50 73 37 141 53 236 55 51 1 57 -1 68
-26z m-1093 -5 c-9 -5 -13 -15 -9 -25 6 -15 5 -16 -9 -3 -9 8 -14 18 -12 22 2
3 -2 8 -8 11 -7 3 2 5 20 4 25 0 30 -2 18 -9z m1584 3 c0 -5 -10 -16 -22 -24
-22 -15 -21 -16 27 -10 28 4 55 13 62 22 7 9 13 11 13 5 0 -7 9 -14 20 -17 11
-3 20 -14 20 -25 0 -17 -11 -21 -88 -31 -49 -6 -102 -11 -118 -11 -17 0 -35
-5 -42 -12 -18 -18 -34 4 -30 43 3 33 5 34 58 45 31 6 62 13 70 17 22 8 30 8
30 -2z m145 -119 c5 -16 2 -24 -12 -29 -10 -3 -26 -13 -35 -21 -17 -14 -18
-12 -18 21 0 27 4 37 15 37 9 0 18 7 22 16 7 18 18 9 28 -24z m-1668 12 c-3
-3 -12 -4 -19 -1 -8 3 -5 6 6 6 11 1 17 -2 13 -5z m863 -44 c-25 -22 -40 -40
-33 -40 6 0 18 6 25 13 14 13 133 47 166 47 25 0 40 -39 21 -51 -8 -5 -24 -9
-36 -9 -12 0 -68 -5 -123 -11 -85 -10 -106 -16 -135 -39 -28 -22 -32 -29 -19
-34 9 -3 21 -3 26 1 7 3 8 1 4 -5 -4 -7 -14 -12 -22 -12 -8 0 -14 -4 -14 -10
0 -5 4 -10 9 -10 13 0 58 39 46 40 -14 2 98 38 143 46 35 7 36 6 22 -11 -13
-17 -13 -18 0 -13 73 26 90 30 104 25 19 -7 21 -36 4 -42 -7 -2 -47 -7 -89
-10 -51 -4 -83 -12 -95 -24 -11 -9 -30 -24 -44 -34 -13 -9 -20 -17 -15 -17 6
0 26 11 45 23 19 13 56 29 82 35 56 14 61 15 54 3 -4 -5 10 -4 29 2 26 8 39 7
47 -1 18 -18 3 -25 -63 -30 -45 -3 -63 -9 -72 -23 -7 -11 -16 -19 -22 -19 -6
0 -22 -11 -37 -25 -30 -27 -78 -44 -78 -26 0 6 -16 11 -35 11 -29 0 -35 4 -35
21 0 18 -5 20 -57 17 -52 -3 -58 -1 -58 17 0 16 10 22 55 30 95 19 23 24 -117
9 -70 -7 -131 -14 -135 -14 -4 0 -6 27 -6 60 1 63 11 78 22 34 l7 -27 87 7
c106 9 149 29 144 69 -2 15 1 27 7 27 6 0 11 -10 11 -22 0 -21 1 -21 30 7 22
21 47 31 97 40 100 19 102 18 53 -25z m646 17 c10 -10 22 -87 13 -81 -5 3 -9
14 -9 25 0 19 -6 20 -67 17 -59 -3 -68 -1 -71 16 -2 10 1 22 7 26 14 8 119 6
127 -3z m-1906 -77 c16 -31 17 -41 8 -44 -23 -8 -178 -18 -178 -12 0 7 132 96
142 96 4 0 17 -18 28 -40z m895 10 c-3 -5 -10 -10 -16 -10 -5 0 -9 5 -9 10 0
6 7 10 16 10 8 0 12 -4 9 -10z m70 0 c3 -5 -1 -10 -10 -10 -9 0 -13 5 -10 10
3 6 8 10 10 10 2 0 7 -4 10 -10z m860 -15 c0 -11 -7 -21 -16 -23 -18 -3 -33
23 -23 39 10 17 39 5 39 -16z m-1394 -69 c-6 -7 -38 -34 -71 -60 l-60 -47 0
50 0 49 53 10 c80 15 91 14 78 -2z m189 -15 c18 -34 12 -39 -47 -46 -32 -3
-70 -8 -85 -10 -46 -7 -32 8 39 43 79 38 79 38 93 13z m1987 -13 c-3 -7 -5 -2
-5 12 0 14 2 19 5 13 2 -7 2 -19 0 -25z m23 -42 c0 -16 -2 -18 -9 -7 -7 11 -9
11 -14 0 -3 -9 -6 -6 -6 7 -1 12 5 21 14 21 9 0 15 -9 15 -21z m40 -2 c0 -8
-4 -14 -10 -14 -5 0 -10 9 -10 21 0 11 5 17 10 14 6 -3 10 -13 10 -21z m-1790
-4 c13 -25 -2 -33 -52 -28 -21 2 -33 8 -33 18 0 12 20 21 67 29 4 0 12 -8 18
-19z m1857 -12 c-3 -7 -5 -2 -5 12 0 14 2 19 5 13 2 -7 2 -19 0 -25z m-2849
-30 c10 -37 4 -36 142 -24 l85 8 18 -31 c22 -38 25 -37 -118 -50 -60 -5 -169
-16 -242 -22 -73 -7 -134 -11 -137 -8 -2 2 -6 18 -8 34 l-3 30 110 12 c61 6
115 12 122 12 8 1 10 13 6 36 -7 45 13 47 25 3z m781 10 c7 -18 3 -29 -17 -50
l-26 -28 42 0 c29 0 45 -5 49 -15 8 -22 6 -23 -65 -31 -55 -6 -62 -5 -62 11 0
13 -6 15 -27 11 -16 -3 -65 -10 -110 -16 -46 -5 -94 -17 -108 -26 -24 -16 -25
-15 -35 11 -15 40 -12 52 15 59 14 4 25 13 25 21 0 8 5 15 10 15 6 0 10 -7 10
-16 0 -13 11 -14 73 -8 87 8 121 22 125 52 3 18 7 21 16 12 10 -7 17 -6 26 5
18 22 49 18 59 -7z m1521 12 c0 -5 -2 -10 -4 -10 -3 0 -8 5 -11 10 -3 6 -1 10
4 10 6 0 11 -4 11 -10z m-1314 -59 c-14 -15 -24 -30 -20 -33 3 -4 -8 -14 -25
-23 l-31 -16 0 40 c0 44 15 60 63 70 41 9 46 -4 13 -38z m149 39 c3 -5 1 -10
-4 -10 -6 0 -11 5 -11 10 0 6 2 10 4 10 3 0 8 -4 11 -10z m-1389 -27 c-10 -10
-19 5 -10 18 6 11 8 11 12 0 2 -7 1 -15 -2 -18z m1404 -7 c0 -11 -19 -15 -25
-6 -3 5 1 10 9 10 9 0 16 -2 16 -4z m1177 -2 c-3 -3 -12 -4 -19 -1 -8 3 -5 6
6 6 11 1 17 -2 13 -5z m773 -45 c0 -11 -4 -17 -10 -14 -5 3 -10 13 -10 21 0 8
5 14 10 14 6 0 10 -9 10 -21z m290 11 c0 -5 -4 -10 -10 -10 -5 0 -10 5 -10 10
0 6 5 10 10 10 6 0 10 -4 10 -10z m305 0 c3 -5 -1 -10 -9 -10 -9 0 -16 5 -16
10 0 6 4 10 9 10 6 0 13 -4 16 -10z m-405 -36 c0 -14 -4 -23 -10 -19 -5 3 -10
15 -10 26 0 10 5 19 10 19 6 0 10 -12 10 -26z m163 -7 c3 -8 1 -20 -4 -28 -6
-10 -9 -7 -9 14 0 29 5 35 13 14z m-3403 -27 c-19 -17 -67 -55 -107 -86 -68
-53 -74 -55 -135 -57 -61 -2 -63 -1 -63 23 0 22 5 26 40 31 55 7 85 25 85 52
0 17 2 19 10 7 7 -12 13 -11 34 9 16 15 49 28 88 36 88 18 87 18 48 -15z m180
11 c0 -9 -60 -24 -67 -17 -3 3 8 11 24 19 27 15 43 14 43 -2z m1840 -16 c0 -5
-5 -3 -10 5 -5 8 -10 20 -10 25 0 6 5 3 10 -5 5 -8 10 -19 10 -25z m1490 8 c0
-20 -3 -24 -11 -16 -7 7 -9 19 -6 27 10 24 17 19 17 -11z m-2980 7 c-8 -5 -28
-10 -45 -10 -23 0 -27 3 -15 10 8 5 29 10 45 10 23 0 27 -3 15 -10z m1518 -21
c-3 -8 -7 -3 -11 10 -4 17 -3 21 5 13 5 -5 8 -16 6 -23z m999 -1 c-3 -7 -5 -2
-5 12 0 14 2 19 5 13 2 -7 2 -19 0 -25z m510 -5 c-3 -10 -5 -4 -5 12 0 17 2
24 5 18 2 -7 2 -21 0 -30z m-1634 7 c3 -11 1 -20 -4 -20 -5 0 -9 9 -9 20 0 11
2 20 4 20 2 0 6 -9 9 -20z m1744 -17 c-3 -10 -5 -4 -5 12 0 17 2 24 5 18 2 -7
2 -21 0 -30z m603 27 c0 -5 -2 -10 -4 -10 -3 0 -8 5 -11 10 -3 6 -1 10 4 10 6
0 11 -4 11 -10z m-1915 -10 c3 -5 1 -10 -4 -10 -6 0 -11 5 -11 10 0 6 2 10 4
10 3 0 8 -4 11 -10z m899 2 c-6 -4 -14 -14 -17 -22 -4 -10 -6 -8 -6 8 -1 15 5
22 17 22 10 0 13 -3 6 -8z m-2687 -47 c-2 -5 -21 -14 -43 -19 -21 -5 -40 -11
-42 -12 -2 -1 7 -22 19 -46 25 -48 34 -138 14 -138 -17 0 -45 61 -45 98 0 17
-5 34 -10 37 -6 4 -8 11 -5 16 4 5 -1 9 -10 9 -9 0 -13 5 -10 10 3 6 -3 10
-13 10 -21 0 -49 27 -38 37 3 3 34 8 68 10 39 2 68 9 78 18 13 14 16 14 28 -2
7 -9 11 -22 9 -28z m1540 23 c-3 -8 -6 -5 -6 6 -1 11 2 17 5 13 3 -3 4 -12 1
-19z m165 -40 c12 -31 10 -30 32 -22 8 3 12 13 9 22 -4 15 -3 15 6 2 9 -13 11
-12 11 4 0 16 2 17 16 5 15 -12 14 -14 -5 -23 -12 -5 -21 -14 -21 -20 0 -7 -8
-12 -18 -13 -22 -2 -53 54 -51 90 1 20 2 20 6 2 2 -11 9 -32 15 -47z m138 55
c0 -5 -5 -15 -10 -23 -7 -12 -9 -10 -7 8 1 19 17 33 17 15z m-387 -23 c3 -11
1 -20 -4 -20 -5 0 -9 9 -9 20 0 11 2 20 4 20 2 0 6 -9 9 -20z m1380 -5 c-7
-21 -13 -19 -13 6 0 11 4 18 10 14 5 -3 7 -12 3 -20z m1477 21 c0 -3 -4 -8
-10 -11 -5 -3 -10 -1 -10 4 0 6 5 11 10 11 6 0 10 -2 10 -4z m-2820 -39 c0 -5
-4 -5 -10 -2 -5 3 -10 14 -10 23 0 15 2 15 10 2 5 -8 10 -19 10 -23z m315 23
c3 -5 2 -10 -4 -10 -5 0 -13 5 -16 10 -3 6 -2 10 4 10 5 0 13 -4 16 -10z m-75
-22 c0 -16 -3 -19 -11 -11 -6 6 -8 16 -5 22 11 17 16 13 16 -11z m1221 7 c5 4
6 -1 3 -9 -9 -24 -24 -19 -23 7 0 12 3 16 6 9 2 -6 9 -10 14 -7z m36 -22 c-3
-10 -5 -4 -5 12 0 17 2 24 5 18 2 -7 2 -21 0 -30z m-3457 17 c0 -7 20 -9 59
-4 53 6 60 4 70 -14 13 -24 -1 -32 -60 -32 -32 0 -52 -9 -105 -50 -36 -27 -69
-50 -73 -50 -5 0 -11 9 -14 20 -3 14 3 26 20 40 l26 20 -27 0 c-21 0 -26 5
-26 24 0 28 25 37 76 29 27 -4 34 -2 34 11 0 9 5 16 10 16 6 0 10 -5 10 -10z
m618 -18 c6 -9 12 -22 12 -29 0 -7 7 -13 15 -13 18 0 20 -40 3 -41 -10 0 -10
-2 -1 -6 9 -3 10 -10 3 -24 -8 -15 -7 -19 5 -19 8 0 15 -4 15 -10 0 -12 -60
-13 -78 -1 -11 7 -10 9 3 15 22 8 16 51 -7 50 -21 -2 -43 56 -33 86 5 16 12
19 28 14 12 -3 28 -13 35 -22z m2957 8 c-2 -27 -15 -38 -15 -13 0 16 8 33 15
33 1 0 1 -9 0 -20z m485 -24 c0 -3 -4 -8 -10 -11 -5 -3 -10 -1 -10 4 0 6 5 11
10 11 6 0 10 -2 10 -4z m-3936 -36 c-12 -12 -134 -43 -142 -36 -8 8 -4 10 63
28 73 19 93 22 79 8z m1926 1 c0 -6 -4 -13 -10 -16 -5 -3 -10 1 -10 9 0 9 5
16 10 16 6 0 10 -4 10 -9z m-617 -18 c-13 -2 -35 -2 -50 0 -16 2 -5 4 22 4 28
0 40 -2 28 -4z m2134 -15 c-3 -8 -6 -5 -6 6 -1 11 2 17 5 13 3 -3 4 -12 1 -19z
m-3800 -34 c12 -19 10 -22 -31 -42 -24 -12 -61 -23 -82 -25 -38 -2 -39 -1 -39
33 0 35 0 35 50 38 28 2 54 7 60 13 12 12 25 7 42 -17z m953 -5 c0 -4 -7 -6
-15 -3 -8 4 -15 10 -15 15 0 4 7 6 15 3 8 -4 15 -10 15 -15z m1160 -4 c0 -8
-2 -15 -4 -15 -2 0 -6 7 -10 15 -3 8 -1 15 4 15 6 0 10 -7 10 -15z m434 -6
c-7 -12 -61 -12 -69 0 -6 11 31 19 57 13 10 -2 15 -8 12 -13z m-1397 -39 c7 0
13 -8 12 -17 0 -10 -3 -13 -5 -6 -3 7 -12 9 -20 6 -8 -3 -14 1 -14 8 0 8 -2
25 -5 39 -4 24 -4 24 7 -2 7 -16 18 -28 25 -28z m3 25 c0 -8 -2 -15 -4 -15 -2
0 -6 7 -10 15 -3 8 -1 15 4 15 6 0 10 -7 10 -15z m29 -40 c-1 -29 -1 -29 -9
-5 -4 14 -8 34 -9 45 -1 16 1 17 9 5 5 -8 9 -28 9 -45z m2528 23 c-3 -7 -5 -2
-5 12 0 14 2 19 5 13 2 -7 2 -19 0 -25z m-2507 7 c0 -8 -2 -15 -4 -15 -2 0 -6
7 -10 15 -3 8 -1 15 4 15 6 0 10 -7 10 -15z m2560 -16 c0 -10 -4 -19 -10 -19
-5 0 -10 12 -10 26 0 14 4 23 10 19 6 -3 10 -15 10 -26z m-2790 -10 c0 -6 -4
-7 -10 -4 -5 3 -10 11 -10 16 0 6 5 7 10 4 6 -3 10 -11 10 -16z m710 11 c0 -5
-4 -10 -10 -10 -5 0 -10 5 -10 10 0 6 5 10 10 10 6 0 10 -4 10 -10z m-353 -32
c-3 -7 -5 -2 -5 12 0 14 2 19 5 13 2 -7 2 -19 0 -25z m106 5 c3 -16 2 -32 -3
-36 -4 -5 -10 7 -12 27 -5 42 7 49 15 9z m44 5 c-3 -8 -6 -5 -6 6 -1 11 2 17
5 13 3 -3 4 -12 1 -19z m-267 -8 c0 -11 -2 -20 -4 -20 -2 0 -6 9 -9 20 -3 11
-1 20 4 20 5 0 9 -9 9 -20z m297 -2 c-3 -8 -6 -5 -6 6 -1 11 2 17 5 13 3 -3 4
-12 1 -19z m31 -9 c-3 -8 -7 -3 -11 10 -4 17 -3 21 5 13 5 -5 8 -16 6 -23z
m-648 4 c0 -10 3 -29 6 -43 4 -18 3 -21 -4 -10 -15 25 -23 70 -12 70 5 0 10
-8 10 -17z m674 1 c3 -8 2 -12 -4 -9 -6 3 -10 10 -10 16 0 14 7 11 14 -7z
m2521 6 c-3 -5 -10 -10 -16 -10 -5 0 -9 5 -9 10 0 6 7 10 16 10 8 0 12 -4 9
-10z m-4355 -15 c0 -15 -21 -22 -75 -27 -41 -4 -49 29 -8 35 62 9 83 7 83 -8z
m945 5 c-3 -5 -21 -10 -38 -9 -31 1 -31 1 -7 9 36 11 52 11 45 0z m232 -12
c-3 -8 -6 -5 -6 6 -1 11 2 17 5 13 3 -3 4 -12 1 -19z m36 -38 c3 -19 3 -30 1
-23 -3 7 -12 9 -20 6 -10 -3 -14 2 -13 18 0 23 1 23 10 4 7 -15 8 -10 5 20 -6
48 9 27 17 -25z m151 25 c5 -22 4 -26 -4 -15 -5 8 -10 24 -10 34 0 26 6 18 14
-19z m183 3 c-3 -7 -5 -2 -5 12 0 14 2 19 5 13 2 -7 2 -19 0 -25z m180 0 c-3
-7 -5 -2 -5 12 0 14 2 19 5 13 2 -7 2 -19 0 -25z m203 28 c0 -2 -9 -6 -20 -9
-11 -3 -18 -1 -14 4 5 9 34 13 34 5z m-703 -38 c-3 -7 -5 -2 -5 12 0 14 2 19
5 13 2 -7 2 -19 0 -25z m533 12 c0 -11 -2 -20 -4 -20 -2 0 -6 9 -9 20 -3 11
-1 20 4 20 5 0 9 -9 9 -20z m1430 10 c0 -4 35 -15 78 -25 101 -25 54 -33 -53
-10 -68 16 -83 23 -70 36 6 7 45 6 45 -1z m2170 6 c0 -3 -4 -8 -10 -11 -5 -3
-10 -1 -10 4 0 6 5 11 10 11 6 0 10 -2 10 -4z m-3572 -37 c-3 -8 -7 -3 -11 10
-4 17 -3 21 5 13 5 -5 8 -16 6 -23z m3677 21 c3 -5 -1 -10 -9 -10 -9 0 -16 5
-16 10 0 6 4 10 9 10 6 0 13 -4 16 -10z m619 -14 c-6 -16 -25 -21 -37 -9 -4 3
3 11 16 18 27 14 29 13 21 -9z m-5404 4 c-8 -5 -11 -12 -7 -16 4 -4 2 -14 -5
-21 -9 -11 -9 -16 1 -22 9 -6 4 -10 -14 -15 -30 -8 -41 -1 -47 27 -1 10 -7 17
-13 15 -5 -2 -9 -5 -9 -8 1 -3 5 -16 9 -30 5 -18 4 -22 -4 -15 -6 6 -14 26
-17 44 l-7 33 34 -7 c44 -9 51 -14 43 -27 -4 -7 -2 -8 4 -4 7 4 12 18 12 32 0
16 6 24 18 24 14 0 15 -2 2 -10z m3540 -4 c0 -13 -29 -31 -37 -22 -4 4 25 36
33 36 2 0 4 -6 4 -14z m-2752 -21 c-3 -3 -9 2 -12 12 -6 14 -5 15 5 6 7 -7 10
-15 7 -18z m19 3 c-3 -8 -6 -5 -6 6 -1 11 2 17 5 13 3 -3 4 -12 1 -19z m241
-4 c6 3 14 1 17 -5 5 -7 -1 -9 -16 -7 -12 1 -24 10 -26 18 -4 12 -3 13 5 1 5
-7 14 -11 20 -7z m267 6 c3 -5 1 -10 -4 -10 -6 0 -11 5 -11 10 0 6 2 10 4 10
3 0 8 -4 11 -10z m582 4 c-3 -3 -12 -4 -19 -1 -8 3 -5 6 6 6 11 1 17 -2 13 -5z
m2643 -10 c0 -2 -7 -4 -15 -4 -8 0 -15 4 -15 10 0 5 7 7 15 4 8 -4 15 -8 15
-10z m-4490 -9 c0 -8 -4 -15 -10 -15 -5 0 -10 7 -10 15 0 8 5 15 10 15 6 0 10
-7 10 -15z m507 -7 c-3 -8 -6 -5 -6 6 -1 11 2 17 5 13 3 -3 4 -12 1 -19z
m4089 -5 c-10 -10 -19 5 -10 18 6 11 8 11 12 0 2 -7 1 -15 -2 -18z m-4784 10
c-10 -4 -10 -8 -1 -19 7 -8 9 -18 5 -22 -4 -4 -14 2 -22 12 -11 16 -11 21 -1
28 6 4 17 7 22 7 6 0 4 -3 -3 -6z m4268 -3 c0 -5 -4 -10 -10 -10 -5 0 -10 5
-10 10 0 6 5 10 10 10 6 0 10 -4 10 -10z m644 -9 c3 -5 0 -11 -8 -14 -15 -6
-26 1 -26 15 0 11 27 10 34 -1z m-3519 -12 c4 -6 0 -16 -8 -22 -8 -7 -17 -19
-20 -27 -4 -12 -6 -11 -6 3 -1 14 -5 16 -20 7 -28 -15 -31 -13 -31 17 0 26 1
26 16 7 10 -13 17 -15 20 -7 3 7 11 10 19 7 7 -3 16 0 21 7 4 7 3 10 -4 6 -5
-4 -21 -3 -34 2 -22 9 -21 10 9 10 17 1 35 -4 38 -10z m81 -16 c-10 -10 -19 5
-10 18 6 11 8 11 12 0 2 -7 1 -15 -2 -18z m-1708 -7 c3 -12 -1 -17 -10 -14 -7
3 -15 13 -16 22 -3 12 1 17 10 14 7 -3 15 -13 16 -22z m167 -10 c28 -4 30 -23
4 -31 -26 -8 -51 17 -42 42 4 10 8 11 13 3 4 -6 15 -13 25 -14z m735 7 c0 -15
-2 -16 -10 -3 -8 12 -10 12 -10 1 0 -8 -3 -12 -6 -8 -8 7 4 27 17 27 5 0 9 -8
9 -17z m360 2 c0 -8 -2 -15 -4 -15 -2 0 -6 7 -10 15 -3 8 -1 15 4 15 6 0 10
-7 10 -15z m3610 5 c0 -5 -5 -10 -11 -10 -5 0 -7 5 -4 10 3 6 8 10 11 10 2 0
4 -4 4 -10z m904 -4 c-3 -9 -12 -12 -22 -9 -15 6 -9 11 25 22 1 1 0 -5 -3 -13z
m-5864 -23 c0 -20 -24 -11 -28 10 -2 12 1 15 12 11 9 -3 16 -13 16 -21z m5073
12 c-3 -9 -8 -14 -10 -11 -3 3 -2 9 2 15 9 16 15 13 8 -4z m-3785 -20 c-3 -3
-9 2 -12 12 -6 14 -5 15 5 6 7 -7 10 -15 7 -18z m-758 5 c0 -5 -7 -7 -15 -4
-8 4 -15 8 -15 10 0 2 7 4 15 4 8 0 15 -4 15 -10z m735 -18 c-8 -8 -25 10 -19
20 4 6 9 5 15 -3 4 -7 6 -15 4 -17z m2248 21 c-7 -2 -19 -2 -25 0 -7 3 -2 5
12 5 14 0 19 -2 13 -5z m1687 -13 c0 -5 -4 -10 -10 -10 -5 0 -10 5 -10 10 0 6
5 10 10 10 6 0 10 -4 10 -10z m-5040 -22 c0 -19 -2 -20 -10 -8 -13 19 -13 30
0 30 6 0 10 -10 10 -22z m1374 1 c5 -5 -5 -4 -24 1 -18 5 -35 12 -39 16 -9 9
53 -7 63 -17z m3796 13 c0 -13 -12 -22 -22 -16 -10 6 -1 24 13 24 5 0 9 -4 9
-8z m-5530 -30 c0 -15 -2 -15 -10 -2 -13 20 -13 33 0 25 6 -3 10 -14 10 -23z
m1450 13 c0 -12 -19 -12 -23 0 -4 9 -1 12 9 8 7 -3 14 -7 14 -8z m322 -7 c-7
-7 -12 -8 -12 -2 0 6 3 14 7 17 3 4 9 5 12 2 2 -3 -1 -11 -7 -17z m-1499 -5
c30 -17 31 -18 9 -21 -32 -5 -52 4 -52 23 0 19 4 19 43 -2z m1097 7 c0 -5 -2
-10 -4 -10 -3 0 -8 5 -11 10 -3 6 -1 10 4 10 6 0 11 -4 11 -10z m-1340 -10 c0
-5 -2 -10 -4 -10 -3 0 -8 5 -11 10 -3 6 -1 10 4 10 6 0 11 -4 11 -10z m5493
-19 c5 -19 -19 -38 -31 -26 -3 3 -1 5 5 5 6 0 9 9 6 20 -3 11 -1 20 5 20 5 0
12 -9 15 -19z m-684 -5 c9 -10 8 -15 -4 -20 -10 -4 -15 1 -15 14 0 24 4 25 19
6z m-4819 -37 c13 -47 7 -63 -8 -22 -5 15 -13 36 -17 46 -4 10 -3 17 4 17 5 0
15 -18 21 -41z m1630 19 c0 -12 -1 -19 -3 -17 -1 2 -9 12 -16 22 -12 14 -11
17 3 17 10 0 16 -8 16 -22z m2425 12 c3 -5 4 -14 0 -20 -8 -13 -35 -1 -35 16
0 16 26 19 35 4z m-4013 -22 c-4 -17 -2 -20 11 -15 10 4 17 2 17 -2 0 -5 -7
-11 -15 -15 -21 -8 -42 33 -24 45 8 5 15 9 16 9 0 0 -1 -10 -5 -22z m1183 10
c5 4 5 1 1 -5 -10 -18 -43 -16 -43 1 0 11 5 12 17 6 10 -5 21 -6 25 -2z m3720
-21 c-20 -11 -29 -3 -21 19 5 13 9 14 22 3 14 -11 14 -13 -1 -22z m-4985 -5
c0 -15 -2 -15 -10 -2 -13 20 -13 33 0 25 6 -3 10 -14 10 -23z m1210 7 c0 -5
-4 -9 -10 -9 -5 0 -10 7 -10 16 0 8 5 12 10 9 6 -3 10 -10 10 -16z m1235 11
c4 -6 -6 -10 -22 -9 -25 0 -26 1 -8 9 11 5 21 9 22 9 1 1 5 -3 8 -9z m-925 -4
c0 -3 -4 -8 -10 -11 -5 -3 -10 -1 -10 4 0 6 5 11 10 11 6 0 10 -2 10 -4z
m3600 -17 c0 -12 -19 -21 -30 -14 -6 4 -8 10 -6 14 7 10 36 10 36 0z m-2665
-9 c7 -12 -2 -12 -30 0 -19 8 -19 9 2 9 12 1 25 -3 28 -9z m2785 -16 c0 -8 -7
-14 -15 -14 -17 0 -18 2 -9 24 7 18 24 12 24 -10z m-4135 6 c3 -5 1 -10 -4
-10 -6 0 -11 5 -11 10 0 6 2 10 4 10 3 0 8 -4 11 -10z m2908 -26 c-8 -21 -33
-17 -33 5 0 14 5 18 19 14 12 -3 17 -11 14 -19z m797 16 c0 -5 7 -6 17 -3 11
4 14 3 9 -5 -4 -7 -15 -12 -24 -12 -13 0 -13 -2 4 -15 19 -15 8 -20 -20 -9
-21 8 -21 54 -1 54 8 0 15 -4 15 -10z m-4433 -16 c-3 -3 -12 -4 -19 -1 -8 3
-5 6 6 6 11 1 17 -2 13 -5z m636 -9 c4 10 10 15 14 12 10 -10 -18 -37 -39 -37
-16 0 -17 3 -7 22 11 21 13 22 19 4 6 -19 7 -19 13 -1z m967 5 c-20 -13 -33
-13 -25 0 3 6 14 10 23 10 15 0 15 -2 2 -10z m2949 -4 c9 -10 8 -16 -4 -26
-13 -11 -15 -8 -15 14 0 30 3 32 19 12z m441 4 c0 -5 -7 -10 -16 -10 -8 0 -12
5 -9 10 3 6 10 10 16 10 5 0 9 -4 9 -10z m-5300 -21 c0 -6 -4 -7 -10 -4 -5 3
-10 11 -10 16 0 6 5 7 10 4 6 -3 10 -11 10 -16z m247 15 c-3 -3 -12 -4 -19 -1
-8 3 -5 6 6 6 11 1 17 -2 13 -5z m4753 -23 c0 -17 -12 -41 -21 -41 -5 0 -9 11
-9 25 0 16 6 25 15 25 8 0 15 -4 15 -9z m-1140 -42 c0 -25 -33 -22 -38 4 -2
12 3 17 17 17 15 0 21 -6 21 -21z m1263 -9 c-7 -28 -13 -25 -13 6 0 14 4 23 9
20 5 -3 7 -15 4 -26z m-433 5 c10 -12 9 -15 -6 -15 -17 0 -17 -1 2 -15 19 -14
19 -14 -3 -15 -27 0 -36 14 -28 40 8 24 18 25 35 5z m-4205 -5 c3 -5 1 -10 -4
-10 -6 0 -11 5 -11 10 0 6 2 10 4 10 3 0 8 -4 11 -10z m4785 -5 c0 -8 -7 -15
-15 -15 -8 0 -15 7 -15 15 0 8 7 15 15 15 8 0 15 -7 15 -15z m-4570 -5 c0 -5
-4 -10 -10 -10 -5 0 -10 5 -10 10 0 6 5 10 10 10 6 0 10 -4 10 -10z m4111 -12
c1 -7 1 -16 0 -20 0 -5 7 -8 17 -9 12 0 10 -3 -7 -10 -27 -11 -28 -10 -31 11
-4 26 0 40 10 40 6 0 11 -6 11 -12z m594 -8 c3 -5 -1 -10 -10 -10 -9 0 -13 5
-10 10 3 6 8 10 10 10 2 0 7 -4 10 -10z m-5105 -15 c0 -8 -6 -15 -14 -15 -8 0
-16 7 -20 15 -4 10 1 15 14 15 11 0 20 -7 20 -15z m75 5 c3 -5 1 -10 -4 -10
-6 0 -11 5 -11 10 0 6 2 10 4 10 3 0 8 -4 11 -10z m4579 -5 c11 -8 15 -15 9
-15 -6 0 -18 -3 -27 -6 -12 -4 -16 0 -16 15 0 25 8 26 34 6z m316 5 c0 -5 -7
-7 -15 -4 -8 4 -15 8 -15 10 0 2 7 4 15 4 8 0 15 -4 15 -10z m-810 -9 c0 -12
-20 -25 -27 -18 -7 7 6 27 18 27 5 0 9 -4 9 -9z m940 -11 c0 -5 -5 -10 -11
-10 -5 0 -7 5 -4 10 3 6 8 10 11 10 2 0 4 -4 4 -10z m-290 -17 c0 -7 -9 -13
-20 -13 -13 0 -18 -5 -14 -15 4 -8 1 -15 -5 -15 -6 0 -11 13 -11 30 0 26 3 29
25 28 14 -1 25 -8 25 -15z m-497 -32 c-4 -4 -11 -10 -15 -15 -5 -5 -8 3 -8 19
0 24 2 26 15 15 9 -7 12 -16 8 -19z m631 4 c4 -10 -1 -15 -14 -15 -11 0 -20 7
-20 15 0 8 6 15 14 15 8 0 16 -7 20 -15z m-474 -21 c0 -8 -7 -14 -15 -14 -9 0
-12 -6 -9 -15 4 -9 0 -15 -10 -15 -17 0 -19 4 -10 35 6 24 44 31 44 9z m612
-9 c0 -5 -5 -11 -11 -13 -6 -2 -11 4 -11 13 0 9 5 15 11 13 6 -2 11 -8 11 -13z
m-252 -10 c3 -4 -7 -9 -22 -9 -16 -1 -28 2 -28 7 0 4 -4 5 -10 2 -5 -3 -10 -1
-10 5 0 12 62 8 70 -5z m100 5 c0 -5 -4 -10 -10 -10 -5 0 -10 5 -10 10 0 6 5
10 10 10 6 0 10 -4 10 -10z m-336 -15 c3 -8 0 -15 -7 -15 -8 0 -8 -3 2 -9 10
-6 10 -10 1 -16 -13 -8 -17 -5 -20 15 -6 39 11 57 24 25z m-1242 -17 c-6 -24
-32 -23 -32 1 0 13 6 19 19 18 12 -1 17 -7 13 -19z m1392 -4 c21 -8 20 -22 -1
-27 -15 -3 -14 -6 6 -14 25 -10 17 -24 -12 -19 -25 3 -29 11 -21 40 7 29 6 28
28 20z m-503 -21 c1 -10 1 -24 0 -30 -1 -7 5 -13 14 -13 28 0 16 -30 -12 -31
-16 0 -22 -3 -15 -6 6 -2 12 -12 12 -20 0 -13 -3 -13 -15 -3 -15 13 -22 100
-8 113 12 12 23 7 24 -10z m2326 11 c-3 -3 -12 -4 -19 -1 -8 3 -5 6 6 6 11 1
17 -2 13 -5z m63 -4 c0 -5 -2 -10 -4 -10 -3 0 -8 5 -11 10 -3 6 -1 10 4 10 6
0 11 -4 11 -10z m-5155 -10 c-3 -5 -14 -10 -23 -9 -14 0 -13 2 3 9 27 11 27
11 20 0z m3413 -30 c-1 -16 -4 -30 -7 -30 -4 0 -8 14 -9 30 -1 17 2 30 7 30 5
0 9 -13 9 -30z m-501 -30 c-1 -26 -7 -40 -16 -40 -8 0 -11 -6 -7 -15 3 -8 0
-15 -6 -15 -7 0 -8 13 -4 38 3 20 6 45 6 55 0 9 6 17 14 17 10 0 14 -12 13
-40z m670 13 c4 -9 1 -19 -5 -21 -7 -2 -10 -7 -8 -11 3 -4 -2 -8 -10 -8 -9 0
-13 6 -9 14 3 8 5 21 5 29 0 20 19 18 27 -3z m352 7 c-8 -5 -40 -11 -70 -14
l-54 -6 40 14 c47 16 110 21 84 6z m-4539 -10 c0 -5 -7 -10 -16 -10 -8 0 -12
5 -9 10 3 6 10 10 16 10 5 0 9 -4 9 -10z m3664 -6 c17 -7 22 -34 6 -34 -5 0
-7 -6 -4 -14 3 -8 -4 -24 -16 -36 l-22 -22 5 43 c3 24 6 50 6 57 1 14 3 14 25
6z m726 -13 c-22 -12 -240 -55 -247 -48 -3 3 5 8 18 11 13 3 62 14 109 25 93
21 145 26 120 12z m-574 -46 c-4 -14 -1 -25 6 -27 15 -5 1 -28 -18 -28 -12 0
-14 9 -10 43 3 23 5 43 5 45 1 2 6 0 12 -4 6 -3 8 -17 5 -29z m-2976 -57 c14
-6 20 -12 14 -14 -15 -6 -137 41 -142 55 -3 10 21 2 128 -41z m3144 40 c-5 -8
4 -9 32 -4 98 16 109 17 94 8 -21 -13 -200 -45 -207 -38 -4 3 6 6 21 6 19 0
29 6 33 20 3 11 12 20 20 20 8 0 11 -5 7 -12z m-614 -34 c0 -16 -4 -22 -14
-18 -10 4 -16 -3 -19 -23 -2 -16 -5 -7 -6 24 -1 47 1 51 19 46 13 -3 20 -14
20 -29z m-3900 -8 c0 -2 -9 -6 -20 -9 -11 -3 -18 -1 -14 4 5 9 34 13 34 5z
m4055 -26 c3 -6 -5 -10 -19 -10 -18 0 -26 -5 -26 -17 0 -9 -3 -14 -6 -10 -3 3
-3 19 1 36 6 26 9 29 25 21 10 -6 22 -15 25 -20z m330 20 c-3 -5 -16 -10 -28
-9 -20 1 -20 2 3 9 14 4 26 8 28 9 2 1 0 -3 -3 -9z m-4438 -6 c-3 -3 -12 -4
-19 -1 -8 3 -5 6 6 6 11 1 17 -2 13 -5z m5098 -3 c-35 -14 -121 -24 -110 -13
10 10 51 18 105 20 22 1 23 0 5 -7z m-945 -22 c0 -5 -4 -9 -10 -9 -5 0 -10 7
-10 16 0 8 5 12 10 9 6 -3 10 -10 10 -16z m129 -3 c-12 -10 -59 -15 -59 -6 0
5 14 10 32 10 17 0 29 -2 27 -4z m681 0 c0 -7 -239 -48 -252 -44 -7 3 34 14
92 25 103 20 160 27 160 19z m-755 -15 c-11 -10 -156 -42 -184 -40 -22 1 29
17 109 33 84 18 86 18 75 7z m432 -47 c-3 -3 -12 -4 -19 -1 -8 3 -5 6 6 6 11
1 17 -2 13 -5z m-1957 -16 c0 -4 -4 -8 -9 -8 -6 0 -12 4 -15 8 -3 5 1 9 9 9 8
0 15 -4 15 -9z m1223 -5 c-7 -2 -21 -2 -30 0 -10 3 -4 5 12 5 17 0 24 -2 18
-5z m570 -10 c-7 -2 -19 -2 -25 0 -7 3 -2 5 12 5 14 0 19 -2 13 -5z m-1982
-32 c-12 -12 -21 -18 -21 -14 0 10 33 44 37 39 3 -2 -5 -14 -16 -25z m1882 12
c-7 -2 -19 -2 -25 0 -7 3 -2 5 12 5 14 0 19 -2 13 -5z m-2495 -26 c6 -5 12
-16 12 -23 0 -11 -5 -11 -27 -1 -31 13 -44 27 -37 39 5 8 32 0 52 -15z m1587
13 c3 -6 -1 -7 -9 -4 -18 7 -21 14 -7 14 6 0 13 -4 16 -10z m795 -10 c-84 -21
-119 -25 -104 -11 5 5 36 14 69 19 99 16 115 12 35 -8z m-125 -20 c-3 -5 -18
-10 -33 -9 -24 0 -25 1 -7 9 28 12 47 12 40 0z m-178 -36 c-3 -3 -12 -4 -19
-1 -8 3 -5 6 6 6 11 1 17 -2 13 -5z m2508 -4 c-11 -5 -38 -8 -60 -8 -34 0 -36
1 -15 8 14 4 41 8 60 8 28 1 31 -1 15 -8z m-3935 -9 c0 -16 -19 -23 -43 -15
l-22 8 25 7 c36 10 40 10 40 0z m1350 -1 c-14 -4 -36 -8 -50 -8 -22 0 -22 1 5
8 17 4 39 8 50 8 16 0 15 -2 -5 -8z m-3600 -20 c0 -5 -5 -10 -11 -10 -5 0 -7
5 -4 10 3 6 8 10 11 10 2 0 4 -4 4 -10z m3186 1 c-3 -4 6 -6 19 -3 19 3 25 0
25 -13 0 -14 -6 -16 -32 -11 -17 3 -33 8 -36 10 -6 7 8 26 19 26 6 0 8 -4 5
-9z m274 -1 c0 -5 -10 -10 -22 -9 -22 0 -22 1 -3 9 11 5 21 9 23 9 1 1 2 -3 2
-9z m53 3 c-7 -2 -19 -2 -25 0 -7 3 -2 5 12 5 14 0 19 -2 13 -5z m-3563 -27
c0 -14 -174 -100 -192 -94 -13 5 81 69 132 91 45 20 60 20 60 3z m3145 -16 c3
-5 1 -10 -4 -10 -6 0 -11 5 -11 10 0 6 2 10 4 10 3 0 8 -4 11 -10z m55 1 c0
-6 -4 -13 -10 -16 -5 -3 -10 1 -10 9 0 9 5 16 10 16 6 0 10 -4 10 -9z m-1120
-11 c0 -5 -5 -10 -11 -10 -5 0 -7 5 -4 10 3 6 8 10 11 10 2 0 4 -4 4 -10z
m1357 -5 c9 -25 -4 -29 -49 -16 -30 10 -38 15 -27 22 23 14 69 10 76 -6z
m-1307 -85 c0 -9 -20 -14 -41 -12 -3 1 -4 -10 -1 -23 2 -14 0 -25 -6 -25 -16
0 -31 24 -29 48 1 19 7 22 39 22 21 0 38 -4 38 -10z m-2080 -72 c0 -5 8 -8 18
-8 28 -1 54 -26 48 -48 -6 -18 -64 -52 -116 -67 -23 -7 -77 -55 -71 -64 5 -7
-54 -41 -71 -41 -33 0 -27 19 32 91 33 40 60 77 60 82 0 23 47 64 72 63 16 -1
28 -4 28 -8z m1701 -43 c-1 -15 -24 -12 -29 3 -3 9 2 13 12 10 10 -1 17 -7 17
-13z m-708 -21 c8 -8 -10 -44 -22 -44 -4 0 -8 7 -8 15 0 8 7 15 16 15 14 0 14
2 1 10 -8 5 -10 10 -4 10 6 0 14 -3 17 -6z m4227 -34 c18 -12 2 -12 -25 0 -13
6 -15 9 -5 9 8 0 22 -4 30 -9z m-1602 -11 c18 -6 30 -15 27 -19 -7 -11 -45 -9
-45 2 0 4 -5 7 -11 6 -6 -2 -14 3 -16 10 -6 15 5 15 45 1z m-1763 -9 c-8 -13
-35 -13 -55 0 -11 7 -5 10 23 10 23 0 36 -4 32 -10z m2025 -2 c-8 -7 -20 -20
-28 -28 -12 -13 -13 -13 -6 0 12 25 26 40 37 40 6 0 5 -6 -3 -12z m-3633 -15
c8 -22 -33 -55 -92 -72 -44 -13 -75 -10 -75 7 0 4 10 19 21 31 43 46 133 67
146 34z m808 7 c3 -5 2 -17 -3 -26 -8 -14 -10 -14 -21 0 -13 15 -8 36 9 36 5
0 12 -4 15 -10z m2310 -1 c11 -17 -1 -21 -37 -14 -29 7 -30 9 -13 16 29 11 43
11 50 -2z m-3595 -14 c-7 -9 -10 -18 -7 -22 8 -7 -48 -60 -83 -78 -34 -18
-105 -31 -97 -18 8 13 -30 32 -73 35 l-35 3 70 39 c75 43 111 53 189 55 42 1
47 -1 36 -14z m2044 9 c20 -8 21 -44 2 -44 -15 0 -29 16 -32 38 -2 13 6 15 30
6z m1776 -18 c0 -3 -4 -8 -10 -11 -5 -3 -10 -1 -10 4 0 6 5 11 10 11 6 0 10
-2 10 -4z m-2464 -44 c-4 -3 -12 0 -19 7 -9 9 -9 14 3 21 11 7 16 5 18 -6 2
-9 1 -18 -2 -22z m2214 13 c7 -8 8 -15 2 -15 -5 0 -15 7 -22 15 -7 8 -8 15 -2
15 5 0 15 -7 22 -15z m-4270 -15 c0 -5 -5 -10 -11 -10 -5 0 -7 5 -4 10 3 6 8
10 11 10 2 0 4 -4 4 -10z m3232 -55 c-3 -18 0 -25 12 -25 30 0 16 -25 -14 -26
-25 -1 -29 2 -25 17 4 13 1 19 -9 19 -9 0 -16 9 -16 20 0 15 7 20 29 20 25 0
28 -3 23 -25z m1293 15 c3 -5 1 -10 -4 -10 -6 0 -11 5 -11 10 0 6 2 10 4 10 3
0 8 -4 11 -10z m165 6 c0 -3 -4 -8 -10 -11 -5 -3 -10 -1 -10 4 0 6 5 11 10 11
6 0 10 -2 10 -4z m-1550 -40 c0 -2 -8 -10 -17 -17 -16 -13 -17 -12 -4 4 13 16
21 21 21 13z m1900 -6 c12 -8 11 -10 -7 -10 -13 0 -23 5 -23 10 0 13 11 13 30
0z m-330 -15 c0 -8 -7 -15 -15 -15 -8 0 -15 7 -15 15 0 8 7 15 15 15 8 0 15
-7 15 -15z m377 -1 c-3 -3 -12 -4 -19 -1 -8 3 -5 6 6 6 11 1 17 -2 13 -5z
m-4259 -36 c7 -35 -73 -91 -143 -101 -39 -6 -41 -5 -40 19 2 32 18 47 80 78
56 29 98 30 103 4z m2666 -50 c-3 -4 -9 -8 -15 -8 -5 0 -9 4 -9 8 0 5 7 9 15
9 8 0 12 -4 9 -9z m-3308 -90 c11 -18 -54 -66 -110 -83 -63 -19 -66 -19 -66 3
0 51 152 120 176 80z m4194 -43 c14 -17 15 -17 -24 -33 -35 -15 -39 -12 -30
22 7 29 34 35 54 11z m-315 -15 c2 -4 -7 -6 -21 -4 -35 3 -41 12 -9 12 14 0
27 -4 30 -8z m-21 -25 c28 -12 36 -21 36 -40 0 -33 -19 -40 -64 -21 -30 13
-36 20 -36 45 0 35 11 38 64 16z m-124 -11 c0 -3 -6 -12 -14 -20 -11 -10 -17
-11 -22 -3 -3 6 0 15 7 20 16 10 29 12 29 3z m-530 -77 c0 -15 -31 -47 -46
-47 -22 0 -26 19 -7 43 17 24 53 26 53 4z"/>
<path d="M3095 3783 l-50 -25 50 6 c52 7 76 20 60 35 -6 5 -31 -2 -60 -16z"/>
<path d="M4737 5083 c-81 -42 -146 -77 -145 -78 2 -1 82 4 178 11 417 31 394
28 462 62 35 18 77 43 93 57 l30 25 -235 -1 -235 0 -148 -76z"/>
<path d="M5640 4975 l-35 -14 42 2 c27 1 43 7 43 15 0 15 -5 14 -50 -3z"/>
<path d="M5390 4766 l-285 -122 -3 -37 -3 -37 68 5 c37 3 130 10 205 15 146
10 182 20 252 71 l44 31 7 95 c4 52 5 96 3 97 -1 2 -131 -52 -288 -118z"/>
<path d="M4975 4590 l-70 -29 60 0 c84 -1 105 6 105 35 0 30 -9 30 -95 -6z"/>
<path d="M410 4210 c-58 -22 -100 -39 -94 -39 6 -1 30 5 52 13 l41 15 -24 -47
c-13 -26 -22 -48 -20 -51 7 -7 56 30 121 90 39 36 57 59 46 58 -9 -1 -64 -18
-122 -39z"/>
<path d="M5780 4220 c0 -13 40 -13 60 0 11 7 5 10 -22 10 -21 0 -38 -4 -38
-10z"/>
<path d="M255 4155 c-16 -8 -23 -14 -15 -14 8 0 26 6 40 14 32 18 15 18 -25 0z"/>
<path d="M834 4155 c22 -16 101 -20 110 -6 9 13 -20 21 -77 21 -48 -1 -50 -2
-33 -15z"/>
<path d="M697 4096 c-5 -15 -6 -31 -2 -34 3 -3 5 0 5 7 0 8 7 11 15 7 8 -3 15
-1 15 4 0 6 -4 10 -9 10 -5 0 -11 8 -13 18 -3 12 -6 9 -11 -12z"/>
<path d="M56 4092 c-39 -12 -45 -17 -30 -23 16 -6 16 -8 2 -8 -9 -1 -20 -5
-23 -11 -7 -12 47 7 55 19 3 5 19 15 35 24 38 21 24 20 -39 -1z"/>
<path d="M570 4062 c0 -8 -14 -10 -67 -12 -44 -2 -125 -33 -110 -42 23 -15 98
-8 138 12 22 12 44 18 49 15 5 -3 11 -1 15 5 3 5 1 10 -5 10 -6 0 -8 5 -5 10
3 6 1 10 -4 10 -6 0 -11 -4 -11 -8z"/>
<path d="M199 3965 c-3 -2 -20 -6 -39 -9 -48 -6 -150 -32 -157 -40 -17 -16 96
-3 159 19 78 27 92 35 61 35 -11 0 -22 -2 -24 -5z"/>
<path d="M545 3886 c-33 -7 -67 -15 -75 -18 -8 -3 -55 -16 -105 -27 -114 -27
-128 -40 -37 -36 55 3 70 1 66 -9 -3 -8 -29 -13 -75 -14 -38 -1 -73 -3 -77 -3
-19 -3 -25 2 -12 11 27 17 -10 12 -100 -15 -46 -14 -94 -25 -107 -25 -22 0
-23 -4 -23 -65 0 -75 -14 -70 140 -50 58 7 92 14 75 15 -21 1 5 13 89 41 124
40 146 45 146 30 0 -5 -39 -21 -87 -36 -49 -15 -92 -29 -98 -31 -29 -12 184 9
223 23 45 15 91 42 92 54 0 3 -21 2 -47 -2 -27 -4 -53 -8 -59 -8 -6 -1 -16 16
-23 37 -7 20 -15 43 -17 50 -4 8 3 12 20 12 14 0 26 5 26 11 0 7 29 9 86 7 81
-3 85 -2 80 17 -3 11 -6 26 -6 33 0 14 -13 14 -95 -2z m-125 -96 c0 -5 -5 -10
-11 -10 -5 0 -7 5 -4 10 3 6 8 10 11 10 2 0 4 -4 4 -10z"/>
<path d="M504 3778 c-3 -5 -15 -7 -26 -5 -13 4 -18 1 -16 -9 4 -18 3 -18 51
-9 20 4 37 11 37 15 0 12 -39 19 -46 8z"/>
<path d="M560 3780 c0 -6 7 -10 15 -10 8 0 15 2 15 4 0 2 -7 6 -15 10 -8 3
-15 1 -15 -4z"/>
</g>
</svg>
